<svg xmlns="http://www.w3.org/2000/svg" width="24" height="24" viewBox="0 0 24 24" fill="none"
     stroke-width="2" stroke-linecap="round" stroke-linejoin="round">
  <style>
    .path { stroke: oklch(0.446 0.03 256.802); }

    @media(prefers-color-scheme: dark) {
    .path { stroke: oklch(0.928 0.006 264.531) }
    }
  </style>
  <path stroke="none" d="M0 0h24v24H0z" fill="none"/>
  <path class="path" d="M9 5h-2a2 2 0 0 0 -2 2v12a2 2 0 0 0 2 2h10a2 2 0 0 0 2 -2v-12a2 2 0 0 0 -2 -2h-2"/>
  <path class="path" d="M9 3m0 2a2 2 0 0 1 2 -2h2a2 2 0 0 1 2 2v0a2 2 0 0 1 -2 2h-2a2 2 0 0 1 -2 -2z"/>
  <path class="path" d="M9 14l2 2l4 -4"/>
</svg>
